<svg width="36" height="15" viewBox="0 0 36 15" fill="none" xmlns="http://www.w3.org/2000/svg">
<rect width="36" height="18" rx="9" fill="#F4F8EC"/>
<path d="M9.596 13H11.324V4.252H8.432V5.8H9.596V13ZM13.3677 10.54C13.4637 11.824 14.3517 13.012 16.2117 13.012C18.5277 13.012 19.1877 11.404 19.1877 8.428C19.1877 5.656 18.4557 4.048 16.0797 4.048C14.2317 4.048 13.1277 5.2 13.1277 6.952C13.1277 8.8 14.3397 9.748 15.8517 9.748C16.6197 9.748 17.3277 9.448 17.6997 8.932C17.6997 10.9 17.2677 11.632 16.2837 11.632C15.5037 11.632 15.0597 11.236 14.9277 10.54H13.3677ZM16.1997 8.38C15.1797 8.38 14.7357 7.732 14.7357 6.94C14.7357 6.064 15.2637 5.476 16.1397 5.476C16.9917 5.476 17.5437 6.004 17.5437 6.964C17.5437 7.816 17.0397 8.38 16.1997 8.38ZM21.9594 8.368C21.0954 8.728 20.5554 9.484 20.5554 10.516C20.5554 12.184 21.9234 13.192 23.7114 13.192C25.5114 13.192 26.8794 12.184 26.8794 10.516C26.8794 9.496 26.3394 8.74 25.4754 8.368C26.1594 8.02 26.6634 7.36 26.6634 6.436C26.6634 5.188 25.7034 4.084 23.7114 4.084C21.7194 4.084 20.7594 5.176 20.7594 6.436C20.7594 7.384 21.2394 7.996 21.9594 8.368ZM23.7114 7.876C22.9554 7.876 22.4034 7.408 22.4034 6.688C22.4034 5.872 22.9314 5.44 23.7114 5.44C24.5154 5.44 25.0314 5.884 25.0314 6.676C25.0314 7.396 24.4794 7.876 23.7114 7.876ZM23.7114 9.1C24.6114 9.1 25.2354 9.58 25.2354 10.444C25.2354 11.212 24.6714 11.8 23.7114 11.8C22.7514 11.8 22.1754 11.224 22.1754 10.444C22.1754 9.556 22.8354 9.1 23.7114 9.1Z" fill="#6A983C"/>
</svg>
