<svg width="16" height="16" fill="none" xmlns="http://www.w3.org/2000/svg"><path fill-rule="evenodd" clip-rule="evenodd" d="M15 15h-3.043v-4.983c0-1.305-.476-2.195-1.523-2.195-.8 0-1.246.6-1.453 1.18-.078.208-.066.497-.066.787V15H5.902s.038-8.827 0-9.63h3.014v1.512c.179-.661 1.142-1.604 2.68-1.604C13.502 5.278 15 6.663 15 9.646V15ZM2.742 4.111h-.02C1.676 4.111 1 3.426 1 2.557 1 1.67 1.697 1 2.761 1S4.48 1.67 4.5 2.554c0 .87-.675 1.557-1.759 1.557ZM1.35 5.667h2.8V15h-2.8V5.667Z" fill="#151515"/></svg>