<svg width="89" height="16" fill="none" xmlns="http://www.w3.org/2000/svg"><g clip-path="url(#a)" clip-rule="evenodd"><path fill-rule="evenodd" d="M7.948 2.127a.72.72 0 0 1 1.374 0l1.24 3.813h4a.727.727 0 0 1 .426 1.333l-3.246 2.354 1.24 3.82a.72.72 0 0 1-1.114.806l-3.253-2.38-3.247 2.36a.72.72 0 0 1-1.113-.806l1.24-3.82-3.247-2.354a.727.727 0 0 1 .427-1.333h4l1.273-3.793ZM25.948 2.127a.72.72 0 0 1 1.374 0l1.24 3.813h4a.727.727 0 0 1 .426 1.333l-3.246 2.354 1.24 3.82a.72.72 0 0 1-1.114.806l-3.253-2.38-3.247 2.36a.72.72 0 0 1-1.113-.806l1.24-3.82-3.247-2.354a.726.726 0 0 1 .427-1.333h4l1.273-3.793ZM43.948 2.127a.72.72 0 0 1 1.374 0l1.24 3.813h4a.727.727 0 0 1 .426 1.333l-3.246 2.354 1.24 3.82a.72.72 0 0 1-1.114.806l-3.253-2.38-3.247 2.36a.72.72 0 0 1-1.113-.806l1.24-3.82-3.247-2.354a.726.726 0 0 1 .427-1.333h4l1.273-3.793Z" fill="#FDBC15"/><path d="M61.948 2.127a.72.72 0 0 1 1.374 0l1.24 3.813h4a.727.727 0 0 1 .426 1.333l-3.246 2.354 1.24 3.82a.72.72 0 0 1-1.114.806l-3.253-2.38-3.247 2.36a.72.72 0 0 1-1.113-.806l1.24-3.82-3.247-2.354a.726.726 0 0 1 .427-1.333h4l1.273-3.793ZM79.948 2.127a.72.72 0 0 1 1.374 0l1.24 3.813h4a.727.727 0 0 1 .426 1.333l-3.246 2.354 1.24 3.82a.72.72 0 0 1-1.114.806l-3.253-2.38-3.247 2.36a.72.72 0 0 1-1.113-.806l1.24-3.82-3.247-2.354a.726.726 0 0 1 .427-1.333h4l1.273-3.793Z" stroke="#D1D1D1" stroke-linecap="round" stroke-linejoin="round"/></g><defs><clipPath id="a"><path fill="#fff" transform="translate(.615)" d="M0 0h88v16H0z"/></clipPath></defs></svg>