<svg width="16" height="14" fill="none" xmlns="http://www.w3.org/2000/svg"><path fill-rule="evenodd" clip-rule="evenodd" d="M16 1.912a6.412 6.412 0 0 1-1.885.53A3.359 3.359 0 0 0 15.56.58a6.465 6.465 0 0 1-2.086.816A3.237 3.237 0 0 0 11.077.333C9.265.333 7.796 1.841 7.796 3.7c0 .264.028.52.084.767-2.728-.14-5.146-1.48-6.766-3.518A3.427 3.427 0 0 0 .67 2.642c0 1.167.579 2.197 1.46 2.801a3.223 3.223 0 0 1-1.488-.42v.042c0 1.631 1.132 2.992 2.635 3.3a3.189 3.189 0 0 1-1.483.059c.418 1.337 1.63 2.31 3.066 2.336A6.481 6.481 0 0 1 0 12.156a9.14 9.14 0 0 0 5.032 1.51c6.038 0 9.34-5.127 9.34-9.576 0-.146-.003-.293-.009-.436A6.738 6.738 0 0 0 16 1.912Z" fill="#151515"/></svg>